<?xml version="1.0" encoding="UTF-8"?>
<!DOCTYPE svg PUBLIC "-//W3C//DTD SVG 1.1//EN" "http://www.w3.org/Graphics/SVG/1.1/DTD/svg11.dtd">
<!-- Creator: CorelDRAW X7 -->
<svg xmlns="http://www.w3.org/2000/svg" xml:space="preserve" width="15cm" height="10cm" version="1.1" shape-rendering="geometricPrecision" text-rendering="geometricPrecision" image-rendering="optimizeQuality" fill-rule="evenodd" clip-rule="evenodd"
viewBox="0 0 15000 10000"
 xmlns:xlink="http://www.w3.org/1999/xlink">
 <defs>
    <radialGradient id="id0" gradientUnits="userSpaceOnUse" gradientTransform="matrix(1.82096 0.644948 -0.677193 1.73425 -4625 -6600)" cx="7566.68" cy="2342.79" r="4750.92" fx="7566.68" fy="2342.79">
     <stop offset="0" stop-opacity="1" stop-color="#FEFEFE"/>
     <stop offset="0.34902" stop-opacity="1" stop-color="#39A08E"/>
     <stop offset="1" stop-opacity="1" stop-color="#39A08E"/>
    </radialGradient>
    <radialGradient id="id1" gradientUnits="userSpaceOnUse" gradientTransform="matrix(-0.77335 -0.0473735 0.0497421 -0.736525 18443 9582)" cx="10547" cy="5230.27" r="6947.96" fx="10547" fy="5230.27">
     <stop offset="0" stop-opacity="1" stop-color="#FFCC29"/>
     <stop offset="1" stop-opacity="1" stop-color="#F68E34"/>
    </radialGradient>
 </defs>
 <g id="Layer_x0020_1">
  <metadata id="CorelCorpID_0Corel-Layer"/>
  <g id="_927020064">
   <rect fill="none" x="1245" y="1375" width="12509" height="7250"/>
   <path fill="url(#id0)" d="M8376 1952c-59,28 -114,68 -161,118 -73,8 -149,18 -213,31l-1 0 0 0c-232,44 -455,111 -637,274 -205,185 -305,402 -280,590 3,-172 102,-361 284,-524 182,-164 405,-231 637,-274l0 0 0 0c46,-10 98,-18 151,-24 -57,81 -101,182 -128,303l-50 180 0 0c-11,39 -21,79 -32,119 -67,265 121,284 282,283 234,0 564,-4 797,18 1211,115 778,1332 -374,1487 -70,10 -164,17 -240,23 157,-97 249,-251 309,-414 28,-97 55,-195 80,-294 60,-236 -104,-331 -358,-340 -207,-8 -503,14 -709,-4 -903,-81 -979,-726 -459,-1193 207,-186 461,-262 725,-311l0 -1 0 0c115,-23 261,-39 377,-47zm-475 1069c25,108 147,118 255,117 206,0 635,-3 841,16 449,43 641,258 636,503 -28,-217 -223,-399 -633,-437 -205,-20 -634,-17 -840,-16 -127,0 -273,-13 -259,-183z"/>
   <path fill="#25335D" d="M6716 3029l128 0c20,205 142,365 346,488l-609 -1 -144 516c-77,277 -326,503 -553,503l-508 0 580 -2083c77,-277 326,-504 553,-504l508 0 -301 1081zm2251 -311l214 -770 -474 0c-212,0 -461,190 -536,448l-74 264c-35,124 -57,213 81,217 221,6 516,2 742,6l47 -165zm-1393 1817l474 0c228,0 482,-224 554,-503l42 -164c40,-144 -47,-225 -188,-222l-635 0 -247 889z"/>
   <path fill="#39A08E" d="M6573 4538l39 -137c72,-262 308,-477 523,-477l480 0 -21 78 -415 0c-155,0 -322,113 -429,274 104,-117 239,-193 367,-193l454 0 -127 455 -871 0z"/>
   <path fill="#39A08E" d="M10165 1948l-38 138c-73,262 -309,477 -524,477l-480 0 129 -466 775 0 20 -65 -776 0 23 -84 871 0z"/>
   <path fill="#FEFEFE" fill-rule="nonzero" d="M5963 3764c-24,17 -44,36 -59,55 -15,20 -25,40 -31,63 -5,18 -6,34 -3,49 3,14 9,27 19,37 11,12 26,20 43,25 17,5 36,6 57,3 38,-5 72,-19 101,-44 29,-24 49,-54 58,-89 8,-28 5,-50 -6,-67 -12,-17 -31,-26 -57,-25l-24 87 -50 0 38 -143c61,-8 104,2 131,28 26,25 33,64 19,116 -14,50 -41,93 -81,127 -41,35 -88,55 -141,62 -30,4 -57,2 -80,-4 -23,-6 -42,-17 -55,-33 -13,-15 -22,-33 -25,-54 -3,-22 -1,-45 6,-71 8,-31 21,-59 39,-83 17,-24 42,-48 73,-71l28 32zm296 -164l-14 52 -352 2 16 -61c8,-26 15,-46 21,-58 6,-12 15,-23 25,-34 12,-11 25,-20 39,-27 14,-7 29,-12 45,-14 30,-3 53,1 68,14 14,12 21,32 18,59l183 -112 -16 59 -180 108 -3 12 150 0zm-195 1l3 -10c9,-33 10,-55 4,-66 -5,-11 -19,-15 -41,-12 -19,2 -33,9 -43,20 -10,11 -19,31 -27,60l-2 8 106 0zm-87 -259l204 -1c8,0 15,0 21,0 6,0 12,-1 17,-1 23,-3 42,-12 58,-25 16,-14 26,-33 33,-56 4,-16 5,-31 2,-42 -3,-12 -9,-21 -20,-28 -13,-9 -40,-13 -81,-13 -5,0 -8,0 -10,0l-180 1 15 -53 198 -1c33,0 57,2 71,5 15,3 26,8 36,16 14,11 22,26 26,46 3,19 1,42 -6,68 -10,39 -28,69 -54,92 -26,22 -59,36 -98,41 -8,1 -20,2 -35,3 -15,0 -32,1 -50,1l-161 0 14 -53zm244 -343l4 -18c9,-33 11,-55 6,-66 -6,-10 -19,-15 -40,-12 -17,2 -31,9 -41,20 -10,11 -19,31 -26,60l-5 17 102 -1zm200 -1l-14 53 -352 1 19 -69c7,-27 14,-46 20,-59 7,-12 15,-23 25,-33 12,-11 25,-20 39,-27 14,-7 29,-12 45,-14 19,-2 35,-1 48,3 13,5 23,12 30,22 6,9 9,21 9,34 0,13 -4,34 -12,62l-4 15 -3 13 150 -1zm-56 -490c-38,5 -72,20 -101,44 -29,25 -49,55 -58,90 -5,17 -6,34 -3,49 3,15 10,27 20,37 11,12 25,20 42,24 18,5 37,6 58,3 38,-4 71,-19 100,-43 30,-24 49,-53 58,-87 10,-39 5,-69 -18,-91 -22,-23 -54,-31 -98,-26zm-209 138c13,-51 41,-94 81,-128 40,-35 87,-55 142,-62 28,-4 54,-2 77,4 23,7 42,18 56,34 13,15 21,34 25,56 3,22 1,46 -6,72 -13,49 -40,90 -80,124 -41,34 -88,55 -140,61 -30,4 -56,3 -80,-4 -23,-6 -41,-17 -55,-33 -13,-15 -22,-33 -25,-55 -4,-21 -2,-44 5,-69z"/>
   <path fill="#25335D" d="M2428 6208c1,-8 4,-30 10,-67 6,-31 10,-56 13,-76 -11,24 -24,48 -38,72 -14,23 -31,48 -49,72l-419 556 -97 -567c-5,-23 -8,-46 -9,-68 -2,-22 -2,-43 -2,-65 -7,22 -15,45 -25,69 -10,24 -21,49 -35,75l-254 514 -148 0 547 -1087 103 658c2,10 4,28 6,52 3,24 5,54 8,90 18,-30 44,-68 78,-114 8,-12 15,-22 20,-29l475 -657 -72 1087 -150 0 38 -515zm10388 306l147 -63c-1,47 11,82 36,107 26,24 64,36 115,36 48,0 90,-14 126,-42 36,-28 61,-65 75,-112 17,-61 -15,-116 -98,-164 -12,-7 -21,-12 -27,-15 -93,-57 -152,-107 -175,-153 -23,-45 -25,-100 -7,-166 25,-85 72,-154 142,-206 70,-53 150,-79 239,-79 73,0 130,14 171,44 41,30 62,72 65,128l-145 68c-11,-33 -26,-56 -45,-72 -19,-15 -45,-22 -75,-22 -44,0 -82,12 -114,35 -32,24 -54,56 -66,96 -18,62 21,121 118,175 8,4 13,7 18,10 84,47 138,94 162,139 23,45 25,102 6,170 -28,99 -81,177 -157,235 -76,58 -164,87 -265,87 -84,0 -148,-20 -190,-61 -42,-41 -61,-99 -56,-175zm-140 -310c15,-53 20,-103 16,-151 -5,-47 -19,-89 -43,-126 -22,-37 -53,-65 -92,-85 -38,-19 -82,-29 -131,-29 -48,0 -98,9 -147,29 -50,19 -97,47 -142,85 -45,36 -84,78 -115,126 -32,47 -55,98 -71,151 -15,52 -20,102 -16,149 5,47 19,89 43,126 23,37 54,66 93,85 38,19 82,29 131,29 49,0 97,-10 146,-29 50,-19 97,-48 142,-85 46,-37 84,-79 116,-126 32,-47 55,-97 70,-149zm169 0c-22,74 -55,144 -100,210 -46,66 -101,125 -167,176 -66,52 -135,92 -207,119 -72,28 -143,41 -214,41 -72,0 -136,-13 -193,-41 -57,-28 -102,-67 -138,-119 -35,-51 -57,-110 -64,-176 -8,-65 -1,-135 21,-210 21,-75 55,-145 100,-211 45,-66 100,-125 166,-178 66,-51 135,-91 206,-118 72,-27 144,-40 216,-40 72,0 136,13 192,40 56,27 102,67 138,118 35,53 57,113 64,179 8,66 1,136 -20,210zm-1227 -380l-258 899 -161 0 258 -899 -264 0 42 -144 687 0 -41 144 -263 0zm-1694 899l182 -637 284 -227 364 544 208 -723 149 0 -311 1083 -519 -765 -209 725 -148 0zm-740 0l300 -1043 482 0 -75 144 -287 0 -75 261 269 0 -43 149 -269 0 -97 337 393 0 -43 152 -555 0zm-204 -515c0,-8 4,-30 10,-67 5,-31 9,-56 12,-76 -11,24 -23,48 -37,72 -15,23 -31,48 -49,72l-420 556 -97 -567c-4,-23 -7,-46 -8,-68 -2,-22 -3,-43 -2,-65 -7,22 -16,45 -25,69 -10,24 -22,49 -35,75l-254 514 -149 0 547 -1087 104 658c2,10 4,28 6,52 2,24 5,54 8,90 18,-30 44,-68 77,-114 9,-12 16,-22 21,-29l475 -657 -73 1087 -149 0 38 -515zm-1919 515l-169 0 792 -1084 169 1084 -170 0 -89 -766 -533 766zm-572 -598l29 0c86,0 145,-11 179,-32 34,-21 59,-58 74,-111 17,-57 13,-98 -10,-121 -23,-24 -76,-36 -157,-36l-29 0 -86 300zm-48 131l-134 467 -151 0 299 -1043 225 0c66,0 116,5 150,14 34,9 61,24 81,44 23,26 37,58 43,98 5,40 1,84 -13,131 -24,84 -62,149 -114,196 -52,48 -117,76 -195,85l206 475 -182 0 -197 -467 -18 0zm-422 -52c15,-53 21,-103 16,-151 -5,-47 -19,-89 -43,-126 -22,-37 -53,-65 -92,-85 -38,-19 -82,-29 -130,-29 -49,0 -99,9 -148,29 -50,19 -97,47 -142,85 -45,36 -83,78 -115,126 -32,47 -55,98 -71,151 -15,52 -20,102 -15,149 4,47 18,89 42,126 24,37 55,66 93,85 38,19 82,29 131,29 49,0 98,-10 147,-29 49,-19 96,-48 142,-85 45,-37 83,-79 115,-126 32,-47 55,-97 70,-149zm169 0c-22,74 -55,144 -100,210 -46,66 -101,125 -167,176 -66,52 -135,92 -207,119 -72,28 -143,41 -214,41 -71,0 -136,-13 -192,-41 -57,-28 -103,-67 -138,-119 -36,-51 -58,-110 -65,-176 -7,-65 0,-135 21,-210 22,-75 55,-145 100,-211 45,-66 101,-125 166,-178 66,-51 135,-91 207,-118 71,-27 143,-40 215,-40 72,0 136,13 192,40 56,27 102,67 138,118 35,53 57,113 64,179 8,66 1,136 -20,210zm-2142 519l299 -1043 162 0 -111 385 489 0 110 -385 161 0 -299 1043 -162 0 146 -507 -489 0 -145 507 -161 0zm-638 0l300 -1043 161 0 -256 891 361 0 -44 152 -522 0zm-739 0l299 -1043 555 0 -42 144 -393 0 -75 261 281 0 -43 149 -280 0 -97 337 393 0 -44 152 -554 0z"/>
   <path fill="#39A08E" fill-rule="nonzero" d="M13226 7218c5,-17 -1,-25 -17,-25 -20,0 -58,32 -115,96 -49,54 -82,97 -99,128 39,-16 83,-43 131,-82 57,-45 90,-84 100,-117zm131 222c0,2 -3,7 -7,12 -49,55 -113,105 -193,151 -84,49 -156,73 -214,73 -74,0 -103,-43 -87,-128 -97,91 -182,136 -256,136 -76,0 -100,-49 -71,-148 25,-89 67,-167 125,-234 -118,87 -248,209 -390,364 -11,12 -19,18 -23,18 -12,0 -14,-12 -7,-38 2,-7 5,-12 9,-16 19,-28 39,-60 60,-97 -31,24 -66,48 -104,70 -85,49 -156,73 -215,73 -76,0 -104,-46 -84,-138 -129,116 -228,174 -298,174 -73,0 -98,-42 -74,-124 12,-42 41,-99 89,-171 43,-67 83,-120 121,-157 11,-13 22,-19 33,-19 12,0 21,5 28,17 7,11 8,23 5,35 -2,7 -7,15 -15,23 -98,109 -157,200 -178,272 -14,50 -4,75 30,75 39,0 88,-22 149,-66 36,-26 76,-61 122,-104 24,-68 75,-141 153,-221 90,-92 169,-138 237,-138 13,0 23,6 29,19 6,13 8,26 4,40 -13,43 -59,95 -139,157 -72,54 -133,90 -185,108 -19,35 -32,65 -39,88 -17,58 0,86 49,86 46,0 105,-20 175,-61 52,-30 100,-64 144,-101 24,-44 51,-93 78,-146 11,-23 27,-56 49,-99 7,-10 19,-20 36,-30 18,-10 32,-15 44,-15 10,0 13,4 11,13 -4,14 -67,121 -187,322 23,-22 90,-82 201,-178 37,-33 92,-81 164,-142 14,-10 26,-15 36,-15 31,0 42,16 32,48 -2,7 -7,16 -15,25 -111,129 -177,231 -199,306 -15,53 1,79 49,79 37,0 83,-20 137,-60 27,-20 58,-46 93,-80 23,-69 74,-144 154,-226 90,-92 169,-138 237,-138 13,0 23,6 29,19 7,13 8,26 4,40 -13,43 -59,95 -139,157 -71,54 -133,90 -185,108 -19,35 -32,65 -39,88 -16,58 0,86 49,86 47,0 105,-20 175,-61 61,-34 115,-74 164,-119 13,-14 25,-21 34,-21 5,0 7,3 5,9zm-2181 -883c0,3 -3,6 -7,10 -232,232 -420,449 -564,653 73,43 102,89 88,138 -3,11 -10,23 -21,36 -11,12 -21,18 -30,18 -16,0 -22,-8 -17,-25 1,-4 5,-9 10,-14 6,-6 9,-11 11,-17 8,-28 -17,-58 -74,-90 -122,177 -196,308 -220,393 -15,51 -8,76 20,76 12,0 31,-8 56,-24 26,-16 41,-25 43,-25 12,0 16,7 13,19 -5,16 -23,31 -55,47 -31,16 -56,24 -73,24 -61,0 -80,-42 -55,-127 25,-88 99,-223 222,-406 -64,-24 -151,-42 -261,-54 -133,167 -295,317 -486,449 -218,152 -406,228 -564,228 -91,0 -163,-23 -215,-69 -59,-53 -76,-125 -49,-217 49,-172 220,-297 513,-377 197,-53 406,-79 628,-79 48,0 89,1 124,4 121,-180 194,-313 219,-400 15,-54 7,-81 -27,-81 -17,0 -41,7 -72,23 -31,15 -48,23 -50,23 -8,0 -10,-6 -7,-19 5,-18 32,-36 81,-54 45,-17 79,-26 103,-26 61,0 79,46 53,136 -28,97 -98,232 -212,406 112,17 196,37 254,59 140,-202 317,-458 494,-617 23,-21 58,-32 105,-32 17,0 24,4 22,11zm-159 984c-126,114 -224,171 -294,171 -73,0 -98,-42 -74,-124 12,-42 42,-99 89,-171 43,-67 84,-120 121,-157 11,-13 23,-19 33,-19 12,0 22,5 28,17 7,11 9,23 5,35 -2,7 -7,15 -15,23 -97,109 -157,200 -177,272 -15,50 -5,75 30,75 38,0 88,-22 149,-66 40,-30 87,-70 140,-122l18 -17c26,-36 58,-74 96,-115 96,-103 178,-166 247,-188 27,-10 50,-15 70,-15 19,0 39,7 62,20 23,14 32,29 27,45 -1,6 -9,11 -22,15 -13,4 -23,10 -29,19 -16,30 -33,66 -53,107 -36,71 -90,177 -162,320l8 0c72,-3 102,13 92,48 -2,8 -6,12 -11,12 -2,0 -6,-3 -14,-10 -8,-7 -26,-11 -54,-11 -13,0 -27,1 -41,2 -109,210 -219,372 -329,488 -207,220 -391,330 -553,330 -64,0 -112,-19 -144,-58 -32,-39 -38,-92 -19,-157 43,-149 185,-292 426,-429 204,-116 391,-187 559,-213 25,-53 63,-134 115,-241 -137,166 -239,249 -309,249 -41,0 -54,-24 -41,-71 6,-20 15,-41 26,-64zm87 -495c-5,17 -16,32 -32,45 -17,14 -34,20 -51,20 -32,0 -43,-17 -33,-50 5,-17 15,-32 32,-45 16,-13 33,-20 50,-20 32,0 43,17 34,50zm878 0c-5,17 -15,32 -32,45 -16,14 -33,20 -50,20 -32,0 -43,-17 -34,-50 5,-17 16,-32 32,-45 17,-13 33,-20 51,-20 32,0 43,17 33,50zm286 172c4,-17 -1,-25 -17,-25 -20,0 -59,32 -115,96 -49,54 -82,97 -99,128 39,-16 83,-43 131,-82 57,-45 90,-84 100,-117zm-1055 487c-92,16 -207,55 -347,120 -139,64 -250,128 -334,192 -128,100 -207,200 -235,299 -16,55 -12,98 11,131 23,33 60,49 112,49 83,0 174,-36 275,-109 80,-57 157,-130 232,-219 107,-126 202,-280 286,-463zm264 -493c-5,-2 -11,-2 -18,-2 -53,0 -118,35 -196,106 -110,103 -175,188 -194,253 -8,30 -3,44 15,44 30,0 77,-32 142,-96 90,-86 173,-188 251,-305zm-1305 -30c-30,-2 -64,-4 -103,-4 -200,0 -393,25 -579,75 -274,74 -432,188 -477,341 -20,73 -6,129 43,170 42,35 99,52 171,52 143,0 314,-72 512,-215 168,-123 312,-262 433,-419z"/>
   <polygon fill="url(#id1)" points="6043,5153 10401,5023 10428,4451 10745,4885 11285,4451 10957,5079 11470,5230 10824,5425 10797,6010 10480,5576 9940,6010 10265,5387 "/>
  </g>
 </g>
</svg>
