<?xml version="1.0" encoding="UTF-8"?>
<!DOCTYPE svg PUBLIC "-//W3C//DTD SVG 1.1//EN" "http://www.w3.org/Graphics/SVG/1.1/DTD/svg11.dtd">
<!-- Creator: CorelDRAW X7 -->
<svg xmlns="http://www.w3.org/2000/svg" xml:space="preserve" width="15cm" height="5cm" version="1.1" shape-rendering="geometricPrecision" text-rendering="geometricPrecision" image-rendering="optimizeQuality" fill-rule="evenodd" clip-rule="evenodd"
viewBox="0 0 15000 5000"
 xmlns:xlink="http://www.w3.org/1999/xlink">
 <g id="Layer_x0020_1">
  <metadata id="CorelCorpID_0Corel-Layer"/>
  <g id="_932913520">
   <path fill="white" d="M2428 2220c1,-8 4,-31 10,-67 6,-31 10,-56 13,-76 -11,24 -24,48 -38,72 -14,23 -31,47 -49,72l-419 556 -97 -567c-5,-24 -8,-46 -9,-68 -2,-22 -2,-43 -2,-65 -7,22 -15,45 -25,69 -10,24 -21,49 -35,75l-254 514 -148 0 547 -1087 103 658c2,10 4,28 6,52 3,24 5,54 8,90 18,-30 44,-68 78,-114 8,-13 15,-22 20,-29l475 -657 -72 1087 -150 0 38 -515zm10388 306l147 -63c-1,47 11,82 36,107 26,24 64,36 115,36 48,0 90,-14 126,-42 36,-28 61,-65 75,-112 17,-61 -15,-116 -98,-164 -12,-7 -21,-12 -27,-15 -93,-57 -152,-107 -175,-153 -23,-45 -25,-101 -7,-166 25,-85 72,-154 142,-207 70,-52 150,-79 239,-79 73,0 130,15 171,45 41,30 62,72 65,128l-145 68c-11,-33 -26,-57 -45,-72 -19,-15 -45,-22 -75,-22 -44,0 -82,11 -114,35 -32,24 -54,56 -66,96 -18,62 21,121 118,175 8,4 13,7 18,10 84,47 138,94 162,139 23,45 25,102 6,170 -28,98 -81,177 -157,235 -76,58 -164,87 -265,87 -84,0 -148,-20 -190,-61 -42,-41 -61,-99 -56,-175zm-140 -311c15,-52 20,-102 16,-150 -5,-47 -19,-90 -43,-126 -22,-37 -53,-65 -92,-85 -38,-20 -82,-30 -131,-30 -48,0 -98,10 -147,30 -50,19 -97,47 -142,85 -45,36 -84,78 -115,125 -32,48 -55,98 -71,151 -15,53 -20,103 -16,150 5,47 19,89 43,126 23,37 54,65 93,85 38,19 82,29 131,29 49,0 97,-10 146,-29 50,-20 97,-48 142,-85 46,-37 84,-79 116,-126 32,-47 55,-97 70,-150zm169 0c-22,75 -55,145 -100,210 -46,67 -101,125 -167,177 -66,52 -135,92 -207,119 -72,28 -143,41 -214,41 -72,0 -136,-13 -193,-41 -57,-28 -102,-68 -138,-119 -35,-52 -57,-110 -64,-176 -8,-65 -1,-135 21,-211 21,-74 55,-144 100,-210 45,-66 100,-126 166,-178 66,-52 135,-91 206,-118 72,-27 144,-41 216,-41 72,0 136,14 192,41 56,27 102,66 138,118 35,53 57,112 64,179 8,66 1,136 -20,209zm-1227 -379l-258 899 -161 0 258 -899 -264 0 42 -144 687 0 -41 144 -263 0zm-1694 899l182 -637 284 -227 364 544 208 -723 149 0 -311 1083 -519 -765 -209 725 -148 0zm-740 0l300 -1043 482 0 -75 144 -287 0 -75 261 269 0 -43 149 -269 0 -97 337 393 0 -43 152 -555 0zm-204 -515c0,-8 4,-31 10,-67 5,-31 9,-56 12,-76 -11,24 -23,48 -37,72 -15,23 -31,47 -49,72l-420 556 -97 -567c-4,-24 -7,-46 -8,-68 -2,-22 -3,-43 -2,-65 -7,22 -16,45 -25,69 -10,24 -22,49 -35,75l-254 514 -149 0 547 -1087 104 658c2,10 4,28 6,52 2,24 5,54 8,90 18,-30 44,-68 77,-114 9,-13 16,-22 21,-29l475 -657 -73 1087 -149 0 38 -515zm-1919 515l-169 0 792 -1084 169 1084 -170 0 -89 -766 -533 766zm-572 -599l29 0c86,0 145,-10 179,-31 34,-21 59,-58 74,-111 17,-57 13,-98 -10,-121 -23,-24 -76,-36 -157,-36l-29 0 -86 299zm-48 132l-134 467 -151 0 299 -1043 225 0c66,0 116,5 150,14 34,9 61,23 81,44 23,26 37,58 43,98 5,40 1,83 -13,131 -24,83 -62,149 -114,196 -52,47 -117,76 -195,85l206 475 -182 0 -197 -467 -18 0zm-422 -53c15,-52 21,-102 16,-150 -5,-47 -19,-90 -43,-126 -22,-37 -53,-65 -92,-85 -38,-20 -82,-30 -130,-30 -49,0 -99,10 -148,30 -50,19 -97,47 -142,85 -45,36 -83,78 -115,125 -32,48 -55,98 -71,151 -15,53 -20,103 -15,150 4,47 18,89 42,126 24,37 55,65 93,85 38,19 82,29 131,29 49,0 98,-10 147,-29 49,-20 96,-48 142,-85 45,-37 83,-79 115,-126 32,-47 55,-97 70,-150zm169 0c-22,75 -55,145 -100,210 -46,67 -101,125 -167,177 -66,52 -135,92 -207,119 -72,28 -143,41 -214,41 -71,0 -136,-13 -192,-41 -57,-28 -103,-68 -138,-119 -36,-52 -58,-110 -65,-176 -7,-65 0,-135 21,-211 22,-74 55,-144 100,-210 45,-66 101,-126 166,-178 66,-52 135,-91 207,-118 71,-27 143,-41 215,-41 72,0 136,14 192,41 56,27 102,66 138,118 35,53 57,112 64,179 8,66 1,136 -20,209zm-2142 520l299 -1043 162 0 -111 385 489 0 110 -385 161 0 -299 1043 -162 0 146 -507 -489 0 -145 507 -161 0zm-638 0l300 -1043 161 0 -256 891 361 0 -44 152 -522 0zm-739 0l299 -1043 555 0 -42 144 -393 0 -75 261 281 0 -43 149 -280 0 -97 337 393 0 -44 152 -554 0z"/>
   <path fill="white" fill-rule="nonzero" d="M13226 3230c5,-17 -1,-25 -17,-25 -20,0 -58,32 -115,96 -49,54 -82,97 -99,128 39,-16 83,-43 131,-82 57,-45 90,-84 100,-117zm131 222c0,2 -3,7 -7,12 -49,54 -113,105 -193,151 -84,49 -156,73 -214,73 -74,0 -103,-43 -87,-128 -97,91 -182,136 -256,136 -76,0 -100,-49 -71,-149 25,-88 67,-166 125,-234 -118,88 -248,210 -390,364 -11,13 -19,19 -23,19 -12,0 -14,-12 -7,-38 2,-7 5,-12 9,-16 19,-28 39,-60 60,-97 -31,24 -66,47 -104,70 -85,49 -156,73 -215,73 -76,0 -104,-46 -84,-138 -129,116 -228,173 -298,173 -73,0 -98,-41 -74,-123 12,-42 41,-99 89,-171 43,-67 83,-120 121,-157 11,-13 22,-19 33,-19 12,0 21,5 28,17 7,11 8,23 5,35 -2,7 -7,15 -15,23 -98,109 -157,200 -178,272 -14,50 -4,75 30,75 39,0 88,-22 149,-67 36,-25 76,-60 122,-103 24,-68 75,-141 153,-221 90,-92 169,-138 237,-138 13,0 23,6 29,19 6,12 8,26 4,40 -13,43 -59,95 -139,157 -72,54 -133,90 -185,108 -19,35 -32,65 -39,88 -17,57 0,86 49,86 46,0 105,-20 175,-61 52,-30 100,-64 144,-101 24,-44 51,-93 78,-147 11,-22 27,-55 49,-99 7,-9 19,-19 36,-29 18,-10 32,-15 44,-15 10,0 13,4 11,13 -4,14 -67,121 -187,322 23,-22 90,-82 201,-178 37,-33 92,-81 164,-142 14,-10 26,-15 36,-15 31,0 42,16 32,48 -2,7 -7,16 -15,25 -111,129 -177,230 -199,306 -15,53 1,79 49,79 37,0 83,-20 137,-60 27,-20 58,-46 93,-80 23,-69 74,-144 154,-226 90,-92 169,-138 237,-138 13,0 23,6 29,19 7,12 8,26 4,40 -13,43 -59,95 -139,157 -71,54 -133,90 -185,108 -19,35 -32,65 -39,88 -16,57 0,86 49,86 47,0 105,-20 175,-61 61,-35 115,-74 164,-119 13,-14 25,-21 34,-21 5,0 7,3 5,9zm-2181 -883c0,3 -3,6 -7,10 -232,232 -420,449 -564,653 73,43 102,89 88,138 -3,11 -10,23 -21,36 -11,12 -21,18 -30,18 -16,0 -22,-8 -17,-25 1,-4 5,-9 10,-14 6,-6 9,-12 11,-17 8,-28 -17,-58 -74,-90 -122,177 -196,308 -220,393 -15,50 -8,76 20,76 12,0 31,-9 56,-25 26,-16 41,-24 43,-24 12,0 16,7 13,19 -5,16 -23,31 -55,47 -31,16 -56,24 -73,24 -61,0 -80,-42 -55,-127 25,-88 99,-223 222,-406 -64,-24 -151,-42 -261,-55 -133,168 -295,318 -486,450 -218,152 -406,228 -564,228 -91,0 -163,-23 -215,-69 -59,-53 -76,-125 -49,-217 49,-172 220,-297 513,-377 197,-53 406,-79 628,-79 48,0 89,1 124,4 121,-180 194,-313 219,-400 15,-54 7,-81 -27,-81 -17,0 -41,7 -72,23 -31,15 -48,23 -50,23 -8,0 -10,-7 -7,-19 5,-18 32,-36 81,-55 45,-16 79,-25 103,-25 61,0 79,46 53,136 -28,97 -98,232 -212,406 112,17 196,36 254,59 140,-202 317,-458 494,-617 23,-21 58,-32 105,-32 17,0 24,4 22,11zm-159 984c-126,114 -224,170 -294,170 -73,0 -98,-41 -74,-123 12,-42 42,-99 89,-171 43,-67 84,-120 121,-157 11,-13 23,-19 33,-19 12,0 22,5 28,17 7,11 9,23 5,35 -2,7 -7,15 -15,23 -97,109 -157,200 -177,272 -15,50 -5,75 30,75 38,0 88,-22 149,-67 40,-29 87,-69 140,-121l18 -18c26,-35 58,-73 96,-114 96,-103 178,-166 247,-188 27,-10 50,-15 70,-15 19,0 39,7 62,20 23,14 32,28 27,45 -1,6 -9,11 -22,15 -13,4 -23,10 -29,19 -16,30 -33,66 -53,106 -36,72 -90,178 -162,320l8 0c72,-2 102,14 92,49 -2,8 -6,12 -11,12 -2,0 -6,-3 -14,-10 -8,-7 -26,-11 -54,-11 -13,0 -27,1 -41,2 -109,209 -219,372 -329,488 -207,220 -391,330 -553,330 -64,0 -112,-19 -144,-58 -32,-39 -38,-92 -19,-157 43,-149 185,-292 426,-429 204,-116 391,-187 559,-213 25,-53 63,-134 115,-241 -137,166 -239,249 -309,249 -41,0 -54,-24 -41,-71 6,-20 15,-41 26,-64zm87 -495c-5,17 -16,32 -32,45 -17,13 -34,20 -51,20 -32,0 -43,-17 -33,-50 5,-17 15,-32 32,-45 16,-13 33,-20 50,-20 32,0 43,17 34,50zm878 0c-5,17 -15,32 -32,45 -16,13 -33,20 -50,20 -32,0 -43,-17 -34,-50 5,-17 16,-32 32,-45 17,-13 33,-20 51,-20 32,0 43,17 33,50zm286 172c4,-17 -1,-25 -17,-25 -20,0 -59,32 -115,96 -49,54 -82,97 -99,128 39,-16 83,-43 131,-82 57,-45 90,-84 100,-117zm-1055 487c-92,16 -207,55 -347,119 -139,65 -250,129 -334,193 -128,100 -207,200 -235,299 -16,54 -12,98 11,131 23,33 60,49 112,49 83,0 174,-36 275,-109 80,-57 157,-130 232,-219 107,-126 202,-280 286,-463zm264 -493c-5,-2 -11,-3 -18,-3 -53,0 -118,36 -196,107 -110,103 -175,188 -194,253 -8,30 -3,44 15,44 30,0 77,-32 142,-96 90,-87 173,-188 251,-305zm-1305 -30c-30,-3 -64,-4 -103,-4 -200,0 -393,25 -579,75 -274,74 -432,188 -477,341 -20,73 -6,129 43,170 42,35 99,52 171,52 143,0 314,-72 512,-215 168,-123 312,-263 433,-419z"/>
   <polygon fill="white" points="6043,1164 10401,1035 10428,463 10745,897 11285,463 10957,1091 11470,1242 10824,1437 10797,2022 10480,1588 9940,2022 10265,1399 "/>
  </g>
 </g>
</svg>
